<mxfile host="app.diagrams.net" modified="2023-05-10T09:31:04.256Z" agent="Mozilla/5.0 (Windows NT 10.0; Win64; x64) AppleWebKit/537.36 (KHTML, like Gecko) Chrome/112.0.0.0 Safari/537.36" etag="2IyqcNYEppiq4081_PFb" version="21.2.9" type="github">
  <diagram name="Page-1" id="dsodPqXlh-mrKjubWUFY">
    <mxGraphModel dx="2814" dy="616" grid="1" gridSize="10" guides="1" tooltips="1" connect="1" arrows="1" fold="1" page="1" pageScale="1" pageWidth="850" pageHeight="1100" math="0" shadow="0">
      <root>
        <mxCell id="0" />
        <mxCell id="1" parent="0" />
        <mxCell id="Ccb0pgxuYhVRcibsod22-1" value="Process" style="rounded=1;whiteSpace=wrap;html=1;" vertex="1" parent="1">
          <mxGeometry x="-750" y="50" width="120" height="60" as="geometry" />
        </mxCell>
        <mxCell id="Ccb0pgxuYhVRcibsod22-3" value="getFileList" style="rounded=1;whiteSpace=wrap;html=1;" vertex="1" parent="1">
          <mxGeometry x="-750" y="180" width="120" height="60" as="geometry" />
        </mxCell>
        <mxCell id="Ccb0pgxuYhVRcibsod22-4" value="hasFiles" style="rhombus;whiteSpace=wrap;html=1;" vertex="1" parent="1">
          <mxGeometry x="-730" y="310" width="80" height="70" as="geometry" />
        </mxCell>
        <mxCell id="Ccb0pgxuYhVRcibsod22-5" value="" style="endArrow=classic;html=1;rounded=0;exitX=0.5;exitY=1;exitDx=0;exitDy=0;" edge="1" parent="1" source="Ccb0pgxuYhVRcibsod22-3" target="Ccb0pgxuYhVRcibsod22-4">
          <mxGeometry width="50" height="50" relative="1" as="geometry">
            <mxPoint y="340" as="sourcePoint" />
            <mxPoint x="50" y="290" as="targetPoint" />
          </mxGeometry>
        </mxCell>
        <mxCell id="Ccb0pgxuYhVRcibsod22-6" value="" style="endArrow=classic;html=1;rounded=0;exitX=0.5;exitY=1;exitDx=0;exitDy=0;" edge="1" parent="1" source="Ccb0pgxuYhVRcibsod22-1">
          <mxGeometry width="50" height="50" relative="1" as="geometry">
            <mxPoint x="-740" y="340" as="sourcePoint" />
            <mxPoint x="-690" y="180" as="targetPoint" />
          </mxGeometry>
        </mxCell>
        <mxCell id="Ccb0pgxuYhVRcibsod22-7" value="" style="endArrow=classic;html=1;rounded=0;exitX=1;exitY=0.5;exitDx=0;exitDy=0;" edge="1" parent="1" source="Ccb0pgxuYhVRcibsod22-4">
          <mxGeometry width="50" height="50" relative="1" as="geometry">
            <mxPoint x="-690" y="340" as="sourcePoint" />
            <mxPoint x="-590" y="345" as="targetPoint" />
          </mxGeometry>
        </mxCell>
        <mxCell id="Ccb0pgxuYhVRcibsod22-8" value="sendEmailNotification" style="rounded=1;whiteSpace=wrap;html=1;" vertex="1" parent="1">
          <mxGeometry x="-590" y="320" width="120" height="60" as="geometry" />
        </mxCell>
        <mxCell id="Ccb0pgxuYhVRcibsod22-10" value="false" style="text;html=1;strokeColor=none;fillColor=none;align=center;verticalAlign=middle;whiteSpace=wrap;rounded=0;" vertex="1" parent="1">
          <mxGeometry x="-660" y="320" width="60" height="30" as="geometry" />
        </mxCell>
        <mxCell id="Ccb0pgxuYhVRcibsod22-11" value="" style="endArrow=classic;html=1;rounded=0;exitX=0.5;exitY=1;exitDx=0;exitDy=0;" edge="1" parent="1" source="Ccb0pgxuYhVRcibsod22-4">
          <mxGeometry width="50" height="50" relative="1" as="geometry">
            <mxPoint x="-640" y="440" as="sourcePoint" />
            <mxPoint x="-690" y="450" as="targetPoint" />
          </mxGeometry>
        </mxCell>
        <mxCell id="Ccb0pgxuYhVRcibsod22-12" value="getSegmentantionModelList(&lt;br&gt;CurrentlyCalledUpload())" style="rounded=1;whiteSpace=wrap;html=1;" vertex="1" parent="1">
          <mxGeometry x="-740" y="450" width="170" height="60" as="geometry" />
        </mxCell>
        <mxCell id="Ccb0pgxuYhVRcibsod22-13" value="isFileTypeCorrect" style="rhombus;whiteSpace=wrap;html=1;" vertex="1" parent="1">
          <mxGeometry x="-740" y="580" width="120" height="110" as="geometry" />
        </mxCell>
        <mxCell id="Ccb0pgxuYhVRcibsod22-16" value="" style="endArrow=classic;html=1;rounded=0;entryX=0.5;entryY=0;entryDx=0;entryDy=0;exitX=0.353;exitY=1;exitDx=0;exitDy=0;exitPerimeter=0;" edge="1" parent="1" source="Ccb0pgxuYhVRcibsod22-12" target="Ccb0pgxuYhVRcibsod22-13">
          <mxGeometry width="50" height="50" relative="1" as="geometry">
            <mxPoint x="-680" y="530" as="sourcePoint" />
            <mxPoint x="-590" y="390" as="targetPoint" />
          </mxGeometry>
        </mxCell>
        <mxCell id="Ccb0pgxuYhVRcibsod22-17" value="" style="endArrow=classic;html=1;rounded=0;" edge="1" parent="1">
          <mxGeometry width="50" height="50" relative="1" as="geometry">
            <mxPoint x="-620" y="634.5" as="sourcePoint" />
            <mxPoint x="-540" y="634.5" as="targetPoint" />
          </mxGeometry>
        </mxCell>
        <mxCell id="Ccb0pgxuYhVRcibsod22-22" value="false" style="edgeLabel;html=1;align=center;verticalAlign=middle;resizable=0;points=[];" vertex="1" connectable="0" parent="Ccb0pgxuYhVRcibsod22-17">
          <mxGeometry x="-0.525" y="1" relative="1" as="geometry">
            <mxPoint y="1" as="offset" />
          </mxGeometry>
        </mxCell>
        <mxCell id="Ccb0pgxuYhVRcibsod22-18" value="at the moment we log the error." style="rounded=1;whiteSpace=wrap;html=1;" vertex="1" parent="1">
          <mxGeometry x="-540" y="600" width="120" height="60" as="geometry" />
        </mxCell>
        <mxCell id="Ccb0pgxuYhVRcibsod22-20" value="CreateSegmentationTempFile(&lt;br&gt;what should happen when there&lt;br&gt;is an IO exception at the moment we catch and swallow it)" style="rounded=1;whiteSpace=wrap;html=1;" vertex="1" parent="1">
          <mxGeometry x="-780" y="800" width="180" height="80" as="geometry" />
        </mxCell>
        <mxCell id="Ccb0pgxuYhVRcibsod22-23" value="" style="endArrow=classic;html=1;rounded=0;entryX=0.55;entryY=-0.037;entryDx=0;entryDy=0;exitX=0.5;exitY=1;exitDx=0;exitDy=0;entryPerimeter=0;" edge="1" parent="1" source="Ccb0pgxuYhVRcibsod22-13" target="Ccb0pgxuYhVRcibsod22-20">
          <mxGeometry width="50" height="50" relative="1" as="geometry">
            <mxPoint x="-690" y="630" as="sourcePoint" />
            <mxPoint x="-640" y="580" as="targetPoint" />
          </mxGeometry>
        </mxCell>
        <mxCell id="Ccb0pgxuYhVRcibsod22-27" value="True" style="edgeLabel;html=1;align=center;verticalAlign=middle;resizable=0;points=[];" vertex="1" connectable="0" parent="Ccb0pgxuYhVRcibsod22-23">
          <mxGeometry x="-0.3084" y="-2" relative="1" as="geometry">
            <mxPoint as="offset" />
          </mxGeometry>
        </mxCell>
        <mxCell id="Ccb0pgxuYhVRcibsod22-25" value="&lt;h1&gt;Note&lt;/h1&gt;&lt;div&gt;This piece seem to be not doing anything after it has created the file, it does not contribute to the overall upload.&lt;/div&gt;" style="text;html=1;strokeColor=none;fillColor=none;spacing=5;spacingTop=-20;whiteSpace=wrap;overflow=hidden;rounded=0;" vertex="1" parent="1">
          <mxGeometry x="-500" y="780" width="180" height="120" as="geometry" />
        </mxCell>
        <mxCell id="Ccb0pgxuYhVRcibsod22-26" value="" style="endArrow=classic;html=1;rounded=0;exitX=1;exitY=0.5;exitDx=0;exitDy=0;entryX=0;entryY=0.5;entryDx=0;entryDy=0;" edge="1" parent="1" source="Ccb0pgxuYhVRcibsod22-20" target="Ccb0pgxuYhVRcibsod22-25">
          <mxGeometry width="50" height="50" relative="1" as="geometry">
            <mxPoint x="-280" y="790" as="sourcePoint" />
            <mxPoint x="-230" y="740" as="targetPoint" />
          </mxGeometry>
        </mxCell>
        <mxCell id="Ccb0pgxuYhVRcibsod22-28" value="fileUploadService(file)" style="rounded=1;whiteSpace=wrap;html=1;" vertex="1" parent="1">
          <mxGeometry x="-775" y="970" width="190" height="60" as="geometry" />
        </mxCell>
        <mxCell id="Ccb0pgxuYhVRcibsod22-29" value="" style="endArrow=classic;html=1;rounded=0;entryX=0.5;entryY=0;entryDx=0;entryDy=0;exitX=0.55;exitY=1;exitDx=0;exitDy=0;exitPerimeter=0;" edge="1" parent="1" source="Ccb0pgxuYhVRcibsod22-20" target="Ccb0pgxuYhVRcibsod22-28">
          <mxGeometry width="50" height="50" relative="1" as="geometry">
            <mxPoint x="-690" y="880" as="sourcePoint" />
            <mxPoint x="-640" y="830" as="targetPoint" />
          </mxGeometry>
        </mxCell>
        <mxCell id="Ccb0pgxuYhVRcibsod22-31" value="getSegmentationModelList()" style="rounded=1;whiteSpace=wrap;html=1;" vertex="1" parent="1">
          <mxGeometry x="-760" y="1140" width="160" height="60" as="geometry" />
        </mxCell>
        <mxCell id="Ccb0pgxuYhVRcibsod22-32" value="" style="endArrow=classic;html=1;rounded=0;exitX=0.458;exitY=1;exitDx=0;exitDy=0;entryX=0.45;entryY=-0.083;entryDx=0;entryDy=0;entryPerimeter=0;exitPerimeter=0;" edge="1" parent="1" source="Ccb0pgxuYhVRcibsod22-28" target="Ccb0pgxuYhVRcibsod22-31">
          <mxGeometry width="50" height="50" relative="1" as="geometry">
            <mxPoint x="-280" y="990" as="sourcePoint" />
            <mxPoint x="-230" y="940" as="targetPoint" />
          </mxGeometry>
        </mxCell>
        <mxCell id="Ccb0pgxuYhVRcibsod22-33" value="" style="endArrow=none;dashed=1;html=1;rounded=0;" edge="1" parent="1">
          <mxGeometry width="50" height="50" relative="1" as="geometry">
            <mxPoint x="-1000" y="430" as="sourcePoint" />
            <mxPoint x="-20" y="420" as="targetPoint" />
          </mxGeometry>
        </mxCell>
        <mxCell id="Ccb0pgxuYhVRcibsod22-34" value="readCSVFIle" style="rounded=1;whiteSpace=wrap;html=1;" vertex="1" parent="1">
          <mxGeometry x="-450" y="1140" width="120" height="60" as="geometry" />
        </mxCell>
        <mxCell id="Ccb0pgxuYhVRcibsod22-35" value="createSegmentationModel" style="rounded=1;whiteSpace=wrap;html=1;" vertex="1" parent="1">
          <mxGeometry x="-450" y="1260" width="160" height="60" as="geometry" />
        </mxCell>
        <mxCell id="Ccb0pgxuYhVRcibsod22-36" value="" style="endArrow=classic;html=1;rounded=0;entryX=0;entryY=0.5;entryDx=0;entryDy=0;exitX=1;exitY=0.5;exitDx=0;exitDy=0;" edge="1" parent="1" source="Ccb0pgxuYhVRcibsod22-31" target="Ccb0pgxuYhVRcibsod22-34">
          <mxGeometry width="50" height="50" relative="1" as="geometry">
            <mxPoint x="-310" y="1000" as="sourcePoint" />
            <mxPoint x="-260" y="950" as="targetPoint" />
          </mxGeometry>
        </mxCell>
        <mxCell id="Ccb0pgxuYhVRcibsod22-37" value="" style="endArrow=classic;html=1;rounded=0;exitX=0.5;exitY=1;exitDx=0;exitDy=0;entryX=0.381;entryY=0;entryDx=0;entryDy=0;entryPerimeter=0;" edge="1" parent="1" source="Ccb0pgxuYhVRcibsod22-34" target="Ccb0pgxuYhVRcibsod22-35">
          <mxGeometry width="50" height="50" relative="1" as="geometry">
            <mxPoint x="-460" y="990" as="sourcePoint" />
            <mxPoint x="-410" y="940" as="targetPoint" />
          </mxGeometry>
        </mxCell>
        <mxCell id="Ccb0pgxuYhVRcibsod22-38" value="mapSegmentName" style="rounded=1;whiteSpace=wrap;html=1;" vertex="1" parent="1">
          <mxGeometry x="-450" y="1370" width="120" height="60" as="geometry" />
        </mxCell>
        <mxCell id="Ccb0pgxuYhVRcibsod22-40" value="" style="endArrow=classic;html=1;rounded=0;exitX=0.5;exitY=1;exitDx=0;exitDy=0;entryX=0.675;entryY=0.05;entryDx=0;entryDy=0;entryPerimeter=0;" edge="1" parent="1" source="Ccb0pgxuYhVRcibsod22-35" target="Ccb0pgxuYhVRcibsod22-38">
          <mxGeometry width="50" height="50" relative="1" as="geometry">
            <mxPoint x="-460" y="1190" as="sourcePoint" />
            <mxPoint x="-410" y="1140" as="targetPoint" />
          </mxGeometry>
        </mxCell>
      </root>
    </mxGraphModel>
  </diagram>
</mxfile>
